<?xml version="1.0" standalone="no"?><!DOCTYPE svg PUBLIC "-//W3C//DTD SVG 1.1//EN" "http://www.w3.org/Graphics/SVG/1.1/DTD/svg11.dtd"><svg xmlns:xlink="http://www.w3.org/1999/xlink" version="1.1" style="font-family:open sans;font-size:12px;" xmlns="http://www.w3.org/2000/svg" width="1040" height="410"><desc>Created with Highcharts 4.1.5</desc><defs><clipPath id="highcharts-63"><rect x="0" y="0" width="838" height="196"></rect></clipPath></defs><rect x="0" y="0" width="1040" height="410" strokeWidth="0" fill="#FFFFFF" class=" highcharts-background"></rect><g class="highcharts-grid" ></g><g class="highcharts-grid" ></g><g class="highcharts-grid" ><path fill="none" d="M 100 332.5 L 938 332.5" stroke="#D8D8D8" stroke-width="1"  opacity="1"></path><path fill="none" d="M 100 267.5 L 938 267.5" stroke="#D8D8D8" stroke-width="1"  opacity="1"></path><path fill="none" d="M 100 201.5 L 938 201.5" stroke="#D8D8D8" stroke-width="1"  opacity="1"></path><path fill="none" d="M 100 135.5 L 938 135.5" stroke="#D8D8D8" stroke-width="1"  opacity="1"></path></g><g class="highcharts-grid" ></g><g class="highcharts-axis" ><path fill="none" d="M 175.5 332 L 175.5 342" stroke="#C0D0E0" stroke-width="1" opacity="1"></path><path fill="none" d="M 251.5 332 L 251.5 342" stroke="#C0D0E0" stroke-width="1" opacity="1"></path><path fill="none" d="M 328.5 332 L 328.5 342" stroke="#C0D0E0" stroke-width="1" opacity="1"></path><path fill="none" d="M 404.5 332 L 404.5 342" stroke="#C0D0E0" stroke-width="1" opacity="1"></path><path fill="none" d="M 480.5 332 L 480.5 342" stroke="#C0D0E0" stroke-width="1" opacity="1"></path><path fill="none" d="M 556.5 332 L 556.5 342" stroke="#C0D0E0" stroke-width="1" opacity="1"></path><path fill="none" d="M 632.5 332 L 632.5 342" stroke="#C0D0E0" stroke-width="1" opacity="1"></path><path fill="none" d="M 708.5 332 L 708.5 342" stroke="#C0D0E0" stroke-width="1" opacity="1"></path><path fill="none" d="M 785.5 332 L 785.5 342" stroke="#C0D0E0" stroke-width="1" opacity="1"></path><path fill="none" d="M 861.5 332 L 861.5 342" stroke="#C0D0E0" stroke-width="1" opacity="1"></path><path fill="none" d="M 937.5 332 L 937.5 342" stroke="#C0D0E0" stroke-width="1" opacity="1"></path><path fill="none" d="M 99.5 332 L 99.5 342" stroke="#C0D0E0" stroke-width="1" opacity="1"></path><path fill="none" d="M 100 332.5 L 938 332.5" stroke="#C0D0E0" stroke-width="1"  visibility="visible"></path></g><g class="highcharts-axis" ><path fill="none" d="M 175.5 136 L 175.5 126" stroke="#C0D0E0" stroke-width="1" opacity="1"></path><path fill="none" d="M 251.5 136 L 251.5 126" stroke="#C0D0E0" stroke-width="1" opacity="1"></path><path fill="none" d="M 328.5 136 L 328.5 126" stroke="#C0D0E0" stroke-width="1" opacity="1"></path><path fill="none" d="M 404.5 136 L 404.5 126" stroke="#C0D0E0" stroke-width="1" opacity="1"></path><path fill="none" d="M 480.5 136 L 480.5 126" stroke="#C0D0E0" stroke-width="1" opacity="1"></path><path fill="none" d="M 556.5 136 L 556.5 126" stroke="#C0D0E0" stroke-width="1" opacity="1"></path><path fill="none" d="M 632.5 136 L 632.5 126" stroke="#C0D0E0" stroke-width="1" opacity="1"></path><path fill="none" d="M 708.5 136 L 708.5 126" stroke="#C0D0E0" stroke-width="1" opacity="1"></path><path fill="none" d="M 785.5 136 L 785.5 126" stroke="#C0D0E0" stroke-width="1" opacity="1"></path><path fill="none" d="M 861.5 136 L 861.5 126" stroke="#C0D0E0" stroke-width="1" opacity="1"></path><path fill="none" d="M 937.5 136 L 937.5 126" stroke="#C0D0E0" stroke-width="1" opacity="1"></path><path fill="none" d="M 99.5 136 L 99.5 126" stroke="#C0D0E0" stroke-width="1" opacity="1"></path><path fill="none" d="M 100 135.5 L 938 135.5" stroke="#C0D0E0" stroke-width="1"  visibility="visible"></path></g><g class="highcharts-axis" ><text x="1013.359375"  text-anchor="middle" transform="translate(0,0) rotate(90 1013.359375 234)" class=" highcharts-yaxis-title" style="color:#000000;fill:#000000;" visibility="visible" y="234"><tspan>Number of people killed by venomous spiders</tspan></text></g><g class="highcharts-axis" ><text x="26.921875"  text-anchor="middle" transform="translate(0,0) rotate(270 26.921875 234)" class=" highcharts-yaxis-title" style="color:#ba0f27;fill:#ba0f27;" visibility="visible" y="234"><tspan>Spelling Bee winning word</tspan></text></g><g class="highcharts-series-group" ><g class="highcharts-series" visibility="visible"  transform="translate(100,136) scale(1 1)" clip-path="url(#highcharts-63)"><path fill="none" d="M 38.09090909090909 117.6 C 38.09090909090909 117.6 83.80000000000001 130.66666666666669 114.27272727272728 130.66666666666669 C 144.74545454545455 130.66666666666669 159.9818181818182 130.66666666666669 190.45454545454547 130.66666666666669 C 220.9272727272727 130.66666666666669 236.16363636363636 65.33333333333334 266.6363636363636 65.33333333333334 C 297.1090909090909 65.33333333333334 312.3454545454546 91.46666666666667 342.81818181818187 91.46666666666667 C 373.2909090909091 91.46666666666667 388.52727272727276 13.066666666666663 419 13.066666666666663 C 449.4727272727273 13.066666666666663 464.709090909091 39.200000000000024 495.18181818181824 65.33333333333334 C 525.6545454545455 91.4666666666667 540.8909090909091 143.73333333333335 571.3636363636364 143.73333333333335 C 601.8363636363636 143.73333333333335 617.0727272727274 91.46666666666667 647.5454545454546 91.46666666666667 C 678.018181818182 91.46666666666667 693.2545454545456 130.66666666666669 723.7272727272729 130.66666666666669 C 754.2 130.66666666666669 799.909090909091 117.6 799.909090909091 117.6" stroke="#000000" stroke-width="2"  stroke-linejoin="round" stroke-linecap="round"></path></g><g class="highcharts-markers" visibility="visible"  transform="translate(100,136) scale(1 1)" clip-path="none"><path fill="#000000" d="M 799 113.6 C 804.328 113.6 804.328 121.6 799 121.6 C 793.672 121.6 793.672 113.6 799 113.6 Z"></path><path fill="#000000" d="M 723 126.66666666666669 C 728.328 126.66666666666669 728.328 134.66666666666669 723 134.66666666666669 C 717.672 134.66666666666669 717.672 126.66666666666669 723 126.66666666666669 Z"></path><path fill="#000000" d="M 647 87.46666666666667 C 652.328 87.46666666666667 652.328 95.46666666666667 647 95.46666666666667 C 641.672 95.46666666666667 641.672 87.46666666666667 647 87.46666666666667 Z"></path><path fill="#000000" d="M 571 139.73333333333335 C 576.328 139.73333333333335 576.328 147.73333333333335 571 147.73333333333335 C 565.672 147.73333333333335 565.672 139.73333333333335 571 139.73333333333335 Z"></path><path fill="#000000" d="M 495 61.33333333333334 C 500.328 61.33333333333334 500.328 69.33333333333334 495 69.33333333333334 C 489.672 69.33333333333334 489.672 61.33333333333334 495 61.33333333333334 Z"></path><path fill="#000000" d="M 419 9.066666666666663 C 424.328 9.066666666666663 424.328 17.066666666666663 419 17.066666666666663 C 413.672 17.066666666666663 413.672 9.066666666666663 419 9.066666666666663 Z"></path><path fill="#000000" d="M 342 87.46666666666667 C 347.328 87.46666666666667 347.328 95.46666666666667 342 95.46666666666667 C 336.672 95.46666666666667 336.672 87.46666666666667 342 87.46666666666667 Z"></path><path fill="#000000" d="M 266 61.33333333333334 C 271.328 61.33333333333334 271.328 69.33333333333334 266 69.33333333333334 C 260.672 69.33333333333334 260.672 61.33333333333334 266 61.33333333333334 Z"></path><path fill="#000000" d="M 190 126.66666666666669 C 195.328 126.66666666666669 195.328 134.66666666666669 190 134.66666666666669 C 184.672 134.66666666666669 184.672 126.66666666666669 190 126.66666666666669 Z"></path><path fill="#000000" d="M 114 126.66666666666669 C 119.328 126.66666666666669 119.328 134.66666666666669 114 134.66666666666669 C 108.672 134.66666666666669 108.672 126.66666666666669 114 126.66666666666669 Z"></path><path fill="#000000" d="M 38 113.6 C 43.328 113.6 43.328 121.6 38 121.6 C 32.672 121.6 32.672 113.6 38 113.6 Z"></path></g><g class="highcharts-series" visibility="visible"  transform="translate(100,136) scale(1 1)" clip-path="url(#highcharts-63)"><path fill="none" d="M 38.09090909090909 117.6 C 38.09090909090909 117.6 83.80000000000001 137.2 114.27272727272728 137.2 C 144.74545454545455 137.2 159.9818181818182 94.08 190.45454545454547 78.39999999999999 C 220.9272727272727 62.72 236.16363636363636 58.79999999999998 266.6363636363636 58.79999999999998 C 297.1090909090909 58.79999999999998 312.3454545454546 78.39999999999999 342.81818181818187 78.39999999999999 C 373.2909090909091 78.39999999999999 388.52727272727276 39.19999999999999 419 39.19999999999999 C 449.4727272727273 39.19999999999999 464.709090909091 43.12 495.18181818181824 58.79999999999998 C 525.6545454545455 74.47999999999999 540.8909090909091 117.6 571.3636363636364 117.6 C 601.8363636363636 117.6 617.0727272727274 117.6 647.5454545454546 117.6 C 678.018181818182 117.6 693.2545454545456 156.8 723.7272727272729 156.8 C 754.2 156.8 799.909090909091 117.6 799.909090909091 117.6" stroke="#ba0f27" stroke-width="2"  stroke-linejoin="round" stroke-linecap="round"></path></g><g class="highcharts-markers" visibility="visible"  transform="translate(100,136) scale(1 1)" clip-path="none"><path fill="#ba0f27" d="M 799 113.6 L 803 117.6 799 121.6 795 117.6 Z"></path><path fill="#ba0f27" d="M 723 152.8 L 727 156.8 723 160.8 719 156.8 Z"></path><path fill="#ba0f27" d="M 647 113.6 L 651 117.6 647 121.6 643 117.6 Z"></path><path fill="#ba0f27" d="M 571 113.6 L 575 117.6 571 121.6 567 117.6 Z"></path><path fill="#ba0f27" d="M 495 54.79999999999998 L 499 58.79999999999998 495 62.79999999999998 491 58.79999999999998 Z"></path><path fill="#ba0f27" d="M 419 35.19999999999999 L 423 39.19999999999999 419 43.19999999999999 415 39.19999999999999 Z"></path><path fill="#ba0f27" d="M 342 74.39999999999999 L 346 78.39999999999999 342 82.39999999999999 338 78.39999999999999 Z"></path><path fill="#ba0f27" d="M 266 54.79999999999998 L 270 58.79999999999998 266 62.79999999999998 262 58.79999999999998 Z"></path><path fill="#ba0f27" d="M 190 74.39999999999999 L 194 78.39999999999999 190 82.39999999999999 186 78.39999999999999 Z"></path><path fill="#ba0f27" d="M 114 133.2 L 118 137.2 114 141.2 110 137.2 Z"></path><path fill="#ba0f27" d="M 38 113.6 L 42 117.6 38 121.6 34 117.6 Z"></path></g></g><text x="520" text-anchor="middle" class="highcharts-title"  style="color:#777;font-size:18px;fill:#777;width:976px;" y="24"><tspan style="fill:#ba0f27;font-size:24px;font-weight:bold;font-family: 'lora'">Letters in Winning Word of Scripps National Spelling Bee</tspan><tspan style="font-family: 'lora'" x="520" dy="21"> correlates with </tspan><tspan style="fill:#000000;font-size:24px;font-weight:bold;font-family: 'lora'" x="520" dy="29">Number of people killed by venomous spiders</tspan></text><g class="highcharts-legend"  transform="translate(272,367)"><g ><g><g class="highcharts-legend-item"  transform="translate(8,3)"><path fill="none" d="M 0 11 L 16 11" stroke="#000000" stroke-width="2"></path><path fill="#000000" d="M 8 7 C 13.328 7 13.328 15 8 15 C 2.6719999999999997 15 2.6719999999999997 7 8 7 Z"></path><text x="21" style="color:#333333;font-size:12px;font-weight:bold;cursor:pointer;fill:#333333;" text-anchor="start"  y="15"><tspan>Number of people killed by venomous spiders</tspan></text></g><g class="highcharts-legend-item"  transform="translate(314.875,3)"><path fill="none" d="M 0 11 L 16 11" stroke="#ba0f27" stroke-width="2"></path><path fill="#ba0f27" d="M 8 7 L 12 11 8 15 4 11 Z"></path><text x="21" y="15" style="color:#333333;font-size:12px;font-weight:bold;cursor:pointer;fill:#333333;" text-anchor="start" ><tspan>Spelling Bee winning word</tspan></text></g></g></g></g><g class="highcharts-axis-labels highcharts-xaxis-labels" ><text x="138.0909090909091" style="color:#000000;cursor:default;font-size:11px;fill:#000000;width:76.18181818181819;text-overflow:ellipsis;" text-anchor="middle" transform="translate(0,0)" y="351" opacity="1"><tspan>1999</tspan></text><text x="214.27272727272728" style="color:#000000;cursor:default;font-size:11px;fill:#000000;width:76.18181818181819;text-overflow:ellipsis;" text-anchor="middle" transform="translate(0,0)" y="351" opacity="1"><tspan>2000</tspan></text><text x="290.4545454545455" style="color:#000000;cursor:default;font-size:11px;fill:#000000;width:76.18181818181819;text-overflow:ellipsis;" text-anchor="middle" transform="translate(0,0)" y="351" opacity="1"><tspan>2001</tspan></text><text x="366.6363636363636" style="color:#000000;cursor:default;font-size:11px;fill:#000000;width:76.18181818181819;text-overflow:ellipsis;" text-anchor="middle" transform="translate(0,0)" y="351" opacity="1"><tspan>2002</tspan></text><text x="442.81818181818187" style="color:#000000;cursor:default;font-size:11px;fill:#000000;width:76.18181818181819;text-overflow:ellipsis;" text-anchor="middle" transform="translate(0,0)" y="351" opacity="1"><tspan>2003</tspan></text><text x="519" style="color:#000000;cursor:default;font-size:11px;fill:#000000;width:76.18181818181819;text-overflow:ellipsis;" text-anchor="middle" transform="translate(0,0)" y="351" opacity="1"><tspan>2004</tspan></text><text x="595.1818181818182" style="color:#000000;cursor:default;font-size:11px;fill:#000000;width:76.18181818181819;text-overflow:ellipsis;" text-anchor="middle" transform="translate(0,0)" y="351" opacity="1"><tspan>2005</tspan></text><text x="671.3636363636364" style="color:#000000;cursor:default;font-size:11px;fill:#000000;width:76.18181818181819;text-overflow:ellipsis;" text-anchor="middle" transform="translate(0,0)" y="351" opacity="1"><tspan>2006</tspan></text><text x="747.5454545454546" style="color:#000000;cursor:default;font-size:11px;fill:#000000;width:76.18181818181819;text-overflow:ellipsis;" text-anchor="middle" transform="translate(0,0)" y="351" opacity="1"><tspan>2007</tspan></text><text x="823.7272727272727" style="color:#000000;cursor:default;font-size:11px;fill:#000000;width:76.18181818181819;text-overflow:ellipsis;" text-anchor="middle" transform="translate(0,0)" y="351" opacity="1"><tspan>2008</tspan></text><text x="899.909090909091" style="color:#000000;cursor:default;font-size:11px;fill:#000000;width:76.18181818181819;text-overflow:ellipsis;" text-anchor="middle" transform="translate(0,0)" y="351" opacity="1"><tspan>2009</tspan></text></g><g class="highcharts-axis-labels highcharts-xaxis-labels" ><text x="138.0909090909091" style="color:#ba0f27;cursor:default;font-size:11px;fill:#ba0f27;width:76.18181818181819;text-overflow:ellipsis;" text-anchor="middle" transform="translate(0,0)" y="121" opacity="1"><tspan>1999</tspan></text><text x="214.27272727272728" style="color:#ba0f27;cursor:default;font-size:11px;fill:#ba0f27;width:76.18181818181819;text-overflow:ellipsis;" text-anchor="middle" transform="translate(0,0)" y="121" opacity="1"><tspan>2000</tspan></text><text x="290.4545454545455" style="color:#ba0f27;cursor:default;font-size:11px;fill:#ba0f27;width:76.18181818181819;text-overflow:ellipsis;" text-anchor="middle" transform="translate(0,0)" y="121" opacity="1"><tspan>2001</tspan></text><text x="366.6363636363636" style="color:#ba0f27;cursor:default;font-size:11px;fill:#ba0f27;width:76.18181818181819;text-overflow:ellipsis;" text-anchor="middle" transform="translate(0,0)" y="121" opacity="1"><tspan>2002</tspan></text><text x="442.81818181818187" style="color:#ba0f27;cursor:default;font-size:11px;fill:#ba0f27;width:76.18181818181819;text-overflow:ellipsis;" text-anchor="middle" transform="translate(0,0)" y="121" opacity="1"><tspan>2003</tspan></text><text x="519" style="color:#ba0f27;cursor:default;font-size:11px;fill:#ba0f27;width:76.18181818181819;text-overflow:ellipsis;" text-anchor="middle" transform="translate(0,0)" y="121" opacity="1"><tspan>2004</tspan></text><text x="595.1818181818182" style="color:#ba0f27;cursor:default;font-size:11px;fill:#ba0f27;width:76.18181818181819;text-overflow:ellipsis;" text-anchor="middle" transform="translate(0,0)" y="121" opacity="1"><tspan>2005</tspan></text><text x="671.3636363636364" style="color:#ba0f27;cursor:default;font-size:11px;fill:#ba0f27;width:76.18181818181819;text-overflow:ellipsis;" text-anchor="middle" transform="translate(0,0)" y="121" opacity="1"><tspan>2006</tspan></text><text x="747.5454545454546" style="color:#ba0f27;cursor:default;font-size:11px;fill:#ba0f27;width:76.18181818181819;text-overflow:ellipsis;" text-anchor="middle" transform="translate(0,0)" y="121" opacity="1"><tspan>2007</tspan></text><text x="823.7272727272727" style="color:#ba0f27;cursor:default;font-size:11px;fill:#ba0f27;width:76.18181818181819;text-overflow:ellipsis;" text-anchor="middle" transform="translate(0,0)" y="121" opacity="1"><tspan>2008</tspan></text><text x="899.909090909091" style="color:#ba0f27;cursor:default;font-size:11px;fill:#ba0f27;width:76.18181818181819;text-overflow:ellipsis;" text-anchor="middle" transform="translate(0,0)" y="121" opacity="1"><tspan>2009</tspan></text></g><g class="highcharts-axis-labels highcharts-yaxis-labels" ><text x="953" style="color:#000000;cursor:default;font-size:11px;fill:#000000;width:333px;text-overflow:clip;" text-anchor="start" transform="translate(0,0)" y="336" opacity="1"><tspan>0 deaths</tspan></text><text x="953" style="color:#000000;cursor:default;font-size:11px;fill:#000000;width:333px;text-overflow:clip;" text-anchor="start" transform="translate(0,0)" y="270" opacity="1"><tspan>5 deaths</tspan></text><text x="953" style="color:#000000;cursor:default;font-size:11px;fill:#000000;width:333px;text-overflow:clip;" text-anchor="start" transform="translate(0,0)" y="205" opacity="1"><tspan>10 deaths</tspan></text><text x="953" style="color:#000000;cursor:default;font-size:11px;fill:#000000;width:333px;text-overflow:clip;" text-anchor="start" transform="translate(0,0)" y="140" opacity="1"><tspan>15 deaths</tspan></text></g><g class="highcharts-axis-labels highcharts-yaxis-labels" ><text x="85" style="color:#ba0f27;cursor:default;font-size:11px;fill:#ba0f27;width:333px;text-overflow:clip;" text-anchor="end" transform="translate(0,0)" y="336" opacity="1"><tspan>5 letters</tspan></text><text x="85" style="color:#ba0f27;cursor:default;font-size:11px;fill:#ba0f27;width:333px;text-overflow:clip;" text-anchor="end" transform="translate(0,0)" y="238" opacity="1"><tspan>10 letters</tspan></text><text x="85" style="color:#ba0f27;cursor:default;font-size:11px;fill:#ba0f27;width:333px;text-overflow:clip;" text-anchor="end" transform="translate(0,0)" y="140" opacity="1"><tspan>15 letters</tspan></text></g><g class="highcharts-tooltip"  style="cursor:default;padding:0;white-space:nowrap;" transform="translate(0,-9999)"><path fill="none" d="M 3 0 L 13 0 C 16 0 16 0 16 3 L 16 13 C 16 16 16 16 13 16 L 3 16 C 0 16 0 16 0 13 L 0 3 C 0 0 0 0 3 0"  stroke="black" stroke-opacity="0.049999999999999996" stroke-width="5" transform="translate(1, 1)"></path><path fill="none" d="M 3 0 L 13 0 C 16 0 16 0 16 3 L 16 13 C 16 16 16 16 13 16 L 3 16 C 0 16 0 16 0 13 L 0 3 C 0 0 0 0 3 0"  stroke="black" stroke-opacity="0.09999999999999999" stroke-width="3" transform="translate(1, 1)"></path><path fill="none" d="M 3 0 L 13 0 C 16 0 16 0 16 3 L 16 13 C 16 16 16 16 13 16 L 3 16 C 0 16 0 16 0 13 L 0 3 C 0 0 0 0 3 0"  stroke="black" stroke-opacity="0.15" stroke-width="1" transform="translate(1, 1)"></path><path fill="rgb(249, 249, 249)" fill-opacity=" .85" d="M 3 0 L 13 0 C 16 0 16 0 16 3 L 16 13 C 16 16 16 16 13 16 L 3 16 C 0 16 0 16 0 13 L 0 3 C 0 0 0 0 3 0"></path><text x="8"  style="font-size:12px;color:#333333;fill:#333333;" transform="translate(0,20)"></text></g><text x="1030" text-anchor="end"  style="cursor:pointer;color:#909090;font-size:9px;fill:#909090;" y="405">tylervigen.com</text></svg>