<?xml version="1.0" encoding="UTF-8" standalone="no"?>
<!-- Created with Inkscape (http://www.inkscape.org/) -->

<svg
   xmlns:dc="http://purl.org/dc/elements/1.1/"
   xmlns:cc="http://creativecommons.org/ns#"
   xmlns:rdf="http://www.w3.org/1999/02/22-rdf-syntax-ns#"
   xmlns:svg="http://www.w3.org/2000/svg"
   xmlns="http://www.w3.org/2000/svg"
   xmlns:sodipodi="http://sodipodi.sourceforge.net/DTD/sodipodi-0.dtd"
   xmlns:inkscape="http://www.inkscape.org/namespaces/inkscape"
   version="1.0"
   width="100"
   height="100"
   id="svg2"
   inkscape:version="0.48.4 r9939"
   sodipodi:docname="EFF_Logo.svg">
  <metadata
     id="metadata15">
    <rdf:RDF>
      <cc:Work
         rdf:about="">
        <dc:format>image/svg+xml</dc:format>
        <dc:type
           rdf:resource="http://purl.org/dc/dcmitype/StillImage" />
      </cc:Work>
    </rdf:RDF>
  </metadata>
  <sodipodi:namedview
     pagecolor="#ffffff"
     bordercolor="#666666"
     borderopacity="1"
     objecttolerance="10"
     gridtolerance="10"
     guidetolerance="10"
     inkscape:pageopacity="0"
     inkscape:pageshadow="2"
     inkscape:window-width="1301"
     inkscape:window-height="744"
     id="namedview13"
     showgrid="false"
     inkscape:zoom="2.2121212"
     inkscape:cx="66"
     inkscape:cy="46"
     inkscape:window-x="65"
     inkscape:window-y="24"
     inkscape:window-maximized="1"
     inkscape:current-layer="svg2" />
  <defs
     id="defs4">
    <marker
       refX="0"
       refY="0"
       orient="auto"
       style="overflow:visible"
       id="Arrow1Lstart">
      <path
         d="M 0,0 5,-5 -12.5,0 5,5 0,0 z"
         transform="matrix(0.8,0,0,0.8,10,0)"
         style="fill-rule:evenodd;stroke:#000000;stroke-width:1pt;marker-start:none"
         id="path3359"
         inkscape:connector-curvature="0" />
    </marker>
  </defs>
  <g
     transform="matrix(0.65151515,0,0,0.65151515,-36.162879,-576.47461)"
     style="display:inline"
     id="layer6">
    <path
       d="m 195.25,961.61225 c 0,23.736 -19.264,42.99995 -43,42.99995 -23.736,0 -43,-19.26395 -43,-42.99995 0,-23.736 19.264,-43 43,-43 23.736,0 43,19.264 43,43 z"
       style="fill:none;stroke:#ffffff;stroke-width:6;stroke-linecap:square;stroke-linejoin:miter;stroke-miterlimit:4;stroke-opacity:1;stroke-dasharray:none;stroke-dashoffset:0;marker-mid:none;display:inline"
       id="path3165"
       inkscape:connector-curvature="0" />
    <path
       d="m 97.25,932.61201 44,0 0,12 -44,0 0,-12 z m 0,46 44,0 0,12 -44,0 0,-12 z m 0,-24 42,0 0,12 -42,0 0,-12 z m -28,-22 28,0 0,58 -28,0 0,-58 z"
       style="fill:none;stroke:#ffffff;stroke-width:6;stroke-linecap:square;stroke-linejoin:miter;stroke-miterlimit:4;stroke-opacity:1;stroke-dasharray:none;stroke-dashoffset:0;display:inline"
       id="rect2160"
       inkscape:connector-curvature="0" />
    <path
       d="m 195.25,961.61205 c 0,23.736 -19.264,42.99995 -43,42.99995 -23.736,0 -43,-19.26395 -43,-42.99995 0,-23.736 19.264,-43 43,-43 23.736,0 43,19.264 43,43 z"
       style="fill:#cb1009;fill-opacity:1;fill-rule:nonzero;stroke:none;stroke-width:0.14825581;marker-mid:none;display:inline"
       id="path3557"
       inkscape:connector-curvature="0" />
    <path
       d="m 97.25,932.61201 44,0 0,12 -44,0 0,-12 z m 0,46 44,0 0,12 -44,0 0,-12 z m 0,-24 42,0 0,12 -42,0 0,-12 z m -28,-22 28,0 0,58 -28,0 0,-58 z"
       style="fill:#000000;fill-opacity:1;fill-rule:nonzero;stroke:none;display:inline"
       id="path3562"
       inkscape:connector-curvature="0" />
    <path
       d="m 153.25,934.61201 6,0 0,4 -6,0 0,-4 z m 0,10 4,0 0,4 -4,0 0,-4 z m -4,-10 4,0 0,24 -4,0 0,-24 z"
       style="fill:#ffffff;fill-opacity:1;fill-rule:nonzero;stroke:none;display:inline"
       id="rect3140"
       inkscape:connector-curvature="0" />
    <path
       d="m 153.25,966.61201 6,0 0,4 -6,0 0,-4 z m 0,10 4,0 0,4 -4,0 0,-4 z m -4,-10 4,0 0,24 -4,0 0,-24 z"
       style="fill:#ffffff;fill-opacity:1;fill-rule:nonzero;stroke:none;display:inline"
       id="rect3153"
       inkscape:connector-curvature="0" />
  </g>
</svg>
