<?xml version="1.0" encoding="UTF-8" standalone="no"?>
<svg
   xmlns:dc="http://purl.org/dc/elements/1.1/"
   xmlns:cc="http://creativecommons.org/ns#"
   xmlns:rdf="http://www.w3.org/1999/02/22-rdf-syntax-ns#"
   xmlns:svg="http://www.w3.org/2000/svg"
   xmlns="http://www.w3.org/2000/svg"
   xmlns:sodipodi="http://sodipodi.sourceforge.net/DTD/sodipodi-0.dtd"
   xmlns:inkscape="http://www.inkscape.org/namespaces/inkscape"
   width="506.8"
   height="221.9"
   viewBox="0 0 506.79983 221.89999"
   id="svg2"
   version="1.1"
   inkscape:version="0.91 r13725"
   sodipodi:docname="egu.svg">
  <metadata
     id="metadata16">
    <rdf:RDF>
      <cc:Work
         rdf:about="">
        <dc:format>image/svg+xml</dc:format>
        <dc:type
           rdf:resource="http://purl.org/dc/dcmitype/StillImage" />
      </cc:Work>
    </rdf:RDF>
  </metadata>
  <defs
     id="defs14" />
  <sodipodi:namedview
     pagecolor="#ffffff"
     bordercolor="#666666"
     borderopacity="1"
     objecttolerance="10"
     gridtolerance="10"
     guidetolerance="10"
     inkscape:pageopacity="0"
     inkscape:pageshadow="2"
     inkscape:window-width="640"
     inkscape:window-height="480"
     id="namedview12"
     showgrid="false"
     inkscape:zoom="0.58800317"
     inkscape:cx="253.39999"
     inkscape:cy="110.95"
     inkscape:window-x="75"
     inkscape:window-y="34"
     inkscape:window-maximized="0"
     inkscape:current-layer="svg2" />
  <g
     fill="#0072bc"
     id="g4"
     style="fill:#000000">
    <path
       d="M314.9 91.9h-14.5V66.7h14.5v4.4h-9.2v5.5h8.5V81h-8.5v6.5h9.2v4.4zm17.8 0l-.7-2.5h-.3c-.6.9-1.4 1.6-2.4 2.1s-2.2.7-3.5.7c-2.3 0-4-.6-5.1-1.8-1.1-1.2-1.7-3-1.7-5.2V72.6h5.3v11.2c0 1.4.2 2.4.7 3.1.5.7 1.3 1 2.4 1 1.5 0 2.5-.5 3.2-1.5.7-1 1-2.6 1-4.9v-9.1h5.3v19.3h-4.2zm19.6-19.6c.7 0 1.3.1 1.8.2l-.4 4.9c-.4-.1-.9-.2-1.5-.2-1.7 0-3 .4-3.9 1.3-.9.9-1.4 2.1-1.4 3.6v9.8h-5.3V72.6h4l.8 3.2h.3c.6-1.1 1.4-1.9 2.4-2.6.9-.6 2-.9 3.2-.9zm22.2 9.9c0 3.1-.8 5.6-2.5 7.4-1.7 1.8-4 2.7-6.9 2.7-1.8 0-3.5-.4-4.9-1.2-1.4-.8-2.5-2-3.3-3.5-.8-1.5-1.1-3.3-1.1-5.3 0-3.1.8-5.6 2.5-7.3 1.6-1.7 3.9-2.6 6.9-2.6 1.8 0 3.5.4 4.9 1.2 1.4.8 2.5 2 3.3 3.5.8 1.4 1.1 3.1 1.1 5.1zm-13.3 0c0 1.9.3 3.3.9 4.3.6 1 1.6 1.5 3.1 1.5 1.4 0 2.4-.5 3-1.5.6-1 .9-2.4.9-4.3s-.3-3.3-.9-4.3c-.6-1-1.6-1.4-3-1.4s-2.4.5-3 1.4c-.7 1-1 2.4-1 4.3zm27.7 10c-2.3 0-4-.8-5.3-2.5h-.3c.2 1.6.3 2.5.3 2.8v7.8h-5.3V72.6h4.3l.7 2.5h.2c1.2-1.9 3-2.9 5.5-2.9 2.3 0 4.1.9 5.3 2.6 1.3 1.8 1.9 4.2 1.9 7.3 0 2.1-.3 3.8-.9 5.4-.6 1.5-1.5 2.7-2.6 3.5-1 .9-2.3 1.2-3.8 1.2zm-1.5-15.7c-1.3 0-2.2.4-2.8 1.2-.6.8-.9 2.1-.9 4v.6c0 2.1.3 3.5.9 4.4.6.9 1.6 1.3 2.9 1.3 2.4 0 3.5-1.9 3.5-5.8 0-1.9-.3-3.3-.9-4.3-.6-.9-1.5-1.4-2.7-1.4zm21.7 15.7c-3.1 0-5.5-.9-7.3-2.6-1.7-1.7-2.6-4.1-2.6-7.3s.8-5.7 2.4-7.5c1.6-1.8 3.8-2.6 6.7-2.6 2.7 0 4.8.8 6.4 2.3 1.5 1.5 2.3 3.7 2.3 6.4v2.5h-12.5c.1 1.5.5 2.7 1.3 3.5.8.8 2 1.3 3.5 1.3 1.2 0 2.3-.1 3.3-.4 1-.2 2.1-.6 3.2-1.2v4.1c-.9.5-1.9.8-2.9 1-1 .4-2.3.5-3.8.5zm-.7-16.2c-1.1 0-2 .4-2.6 1.1-.6.7-1 1.7-1.1 3h7.4c0-1.3-.4-2.3-1-3-.7-.7-1.6-1.1-2.7-1.1zM433 91.9l-1-2.6h-.1c-.9 1.1-1.8 1.9-2.7 2.3-.9.4-2.2.6-3.7.6-1.8 0-3.3-.5-4.4-1.6-1.1-1.1-1.6-2.6-1.6-4.5 0-2 .7-3.6 2.1-4.5 1.4-1 3.6-1.5 6.5-1.6l3.3-.1v-.8c0-2-1-2.9-3-2.9-1.5 0-3.3.5-5.4 1.4l-1.7-3.5c2.2-1.2 4.7-1.7 7.4-1.7 2.6 0 4.6.6 5.9 1.7 1.4 1.1 2.1 2.8 2.1 5.1V92H433zm-1.6-8.9l-2 .1c-1.5 0-2.7.3-3.4.8-.7.5-1.1 1.3-1.1 2.3 0 1.5.8 2.2 2.5 2.2 1.2 0 2.2-.3 2.9-1.1.7-.7 1.1-1.6 1.1-2.8V83zm27.7 8.9h-5.3V80.7c0-1.4-.2-2.4-.7-3.1-.5-.7-1.3-1-2.4-1-1.5 0-2.5.5-3.2 1.5-.7 1-1 2.6-1 4.9v9.1h-5.3V72.8h4l.7 2.5h.3c.6-.9 1.4-1.6 2.4-2.1s2.2-.7 3.5-.7c2.2 0 3.9.6 5.1 1.8 1.2 1.2 1.7 3 1.7 5.2v12.4zM310 110.6h10v13.1c-1.6.5-3.1.9-4.6 1.1-1.4.2-2.9.3-4.4.3-3.8 0-6.7-1.1-8.7-3.3-2-2.2-3-5.4-3-9.6 0-4.1 1.2-7.2 3.5-9.5s5.5-3.4 9.7-3.4c2.6 0 5.1.5 7.5 1.5l-1.8 4.3c-1.8-.9-3.7-1.4-5.7-1.4-2.3 0-4.2.8-5.5 2.3-1.4 1.5-2.1 3.6-2.1 6.3 0 2.7.6 4.8 1.7 6.3 1.1 1.4 2.7 2.2 4.9 2.2 1.1 0 2.2-.1 3.4-.3v-5.3h-4.8v-4.6zm23.8 14.4c-3.1 0-5.5-.9-7.3-2.6-1.7-1.7-2.6-4.1-2.6-7.3s.8-5.7 2.4-7.5c1.6-1.8 3.8-2.6 6.7-2.6 2.7 0 4.8.8 6.4 2.3 1.5 1.5 2.3 3.7 2.3 6.4v2.5h-12.4c.1 1.5.5 2.7 1.3 3.5.8.8 2 1.3 3.5 1.3 1.2 0 2.3-.1 3.3-.4 1-.2 2.1-.6 3.2-1.2v4.1c-.9.5-1.9.8-2.9 1-1.1.4-2.4.5-3.9.5zm-.7-16.2c-1.1 0-2 .4-2.6 1.1-.6.7-1 1.7-1.1 3h7.4c0-1.3-.4-2.3-1-3-.7-.7-1.6-1.1-2.7-1.1zm30.1 6.2c0 3.1-.8 5.6-2.5 7.4-1.7 1.8-4 2.7-6.9 2.7-1.8 0-3.5-.4-4.9-1.2-1.4-.8-2.5-2-3.3-3.5-.8-1.5-1.1-3.3-1.1-5.3 0-3.1.8-5.6 2.5-7.3 1.6-1.7 3.9-2.6 6.9-2.6 1.8 0 3.5.4 4.9 1.2 1.4.8 2.5 2 3.3 3.5.7 1.4 1.1 3.1 1.1 5.1zm-13.4 0c0 1.9.3 3.3.9 4.3.6 1 1.6 1.5 3.1 1.5 1.4 0 2.4-.5 3-1.5.6-1 .9-2.4.9-4.3s-.3-3.3-.9-4.3c-.6-1-1.6-1.4-3-1.4s-2.4.5-3 1.4c-.6 1-1 2.4-1 4.3zm30.7 4c0 2-.7 3.5-2.1 4.5-1.4 1-3.4 1.5-6.2 1.5-1.4 0-2.6-.1-3.6-.3-1-.2-1.9-.5-2.8-.8v-4.3c1 .5 2.1.8 3.3 1.2 1.2.3 2.3.5 3.2.5 1.9 0 2.9-.6 2.9-1.7 0-.4-.1-.7-.4-1-.3-.3-.7-.6-1.3-.9-.6-.3-1.4-.7-2.5-1.1-1.5-.6-2.6-1.2-3.3-1.7-.7-.5-1.2-1.1-1.5-1.8-.3-.7-.5-1.5-.5-2.5 0-1.7.7-3 2-4 1.3-.9 3.2-1.4 5.6-1.4 2.3 0 4.6.5 6.8 1.5l-1.6 3.8c-1-.4-1.9-.8-2.7-1-.8-.3-1.7-.4-2.6-.4-1.5 0-2.3.4-2.3 1.3 0 .5.2.9.7 1.2.5.3 1.6.9 3.3 1.5 1.5.6 2.6 1.2 3.3 1.7.7.5 1.2 1.1 1.5 1.8.6.6.8 1.4.8 2.4zm11.5 6c-6 0-9-3.3-9-9.9 0-3.3.8-5.8 2.4-7.5 1.6-1.7 4-2.6 7-2.6 2.2 0 4.2.4 6 1.3l-1.5 4.1c-.8-.3-1.6-.6-2.3-.8-.7-.2-1.4-.3-2.1-.3-2.7 0-4.1 1.9-4.1 5.8 0 3.8 1.4 5.6 4.1 5.6 1 0 1.9-.1 2.8-.4.9-.3 1.7-.7 2.6-1.3v4.5c-.9.5-1.7.9-2.6 1.1-.8.3-1.9.4-3.3.4zm9.5-24.5c0-1.7 1-2.6 2.9-2.6s2.9.9 2.9 2.6c0 .8-.2 1.4-.7 1.9-.5.5-1.2.7-2.1.7-2-.1-3-.9-3-2.6zm5.5 24.2h-5.3v-19.3h5.3v19.3zm13.7.3c-3.1 0-5.5-.9-7.3-2.6-1.7-1.7-2.6-4.1-2.6-7.3s.8-5.7 2.4-7.5c1.6-1.8 3.8-2.6 6.7-2.6 2.7 0 4.8.8 6.4 2.3 1.5 1.5 2.3 3.7 2.3 6.4v2.5h-12.4c.1 1.5.5 2.7 1.3 3.5.8.8 2 1.3 3.5 1.3 1.2 0 2.3-.1 3.3-.4 1-.2 2.1-.6 3.2-1.2v4.1c-.9.5-1.9.8-2.9 1-1.1.4-2.4.5-3.9.5zm-.7-16.2c-1.1 0-2 .4-2.6 1.1-.6.7-1 1.7-1.1 3h7.4c0-1.3-.4-2.3-1-3-.7-.7-1.6-1.1-2.7-1.1zm30.2 15.9h-5.3v-11.2c0-1.4-.2-2.4-.7-3.1-.5-.7-1.3-1-2.4-1-1.5 0-2.5.5-3.2 1.5-.7 1-1 2.6-1 4.9v9.1h-5.1v-19.5h4l.7 2.5h.3c.6-.9 1.4-1.6 2.4-2.1s2.2-.7 3.5-.7c2.2 0 3.9.6 5.1 1.8 1.2 1.2 1.7 3 1.7 5.2v12.6zm12.8.3c-6 0-9-3.3-9-9.9 0-3.3.8-5.8 2.4-7.5 1.6-1.7 4-2.6 7-2.6 2.2 0 4.2.4 6 1.3l-1.5 4.1c-.8-.3-1.6-.6-2.3-.8-.7-.2-1.4-.3-2.1-.3-2.7 0-4.1 1.9-4.1 5.8 0 3.8 1.4 5.6 4.1 5.6 1 0 1.9-.1 2.8-.4.9-.3 1.7-.7 2.6-1.3v4.5c-.9.5-1.7.9-2.6 1.1-.9.3-2 .4-3.3.4zm18.4 0c-3.1 0-5.5-.9-7.3-2.6-1.7-1.7-2.6-4.1-2.6-7.3s.8-5.7 2.4-7.5c1.6-1.8 3.8-2.6 6.7-2.6 2.7 0 4.8.8 6.4 2.3 1.5 1.5 2.3 3.7 2.3 6.4v2.5h-12.4c.1 1.5.5 2.7 1.3 3.5.8.8 2 1.3 3.5 1.3 1.2 0 2.3-.1 3.3-.4 1-.2 2.1-.6 3.2-1.2v4.1c-.9.5-1.9.8-2.9 1-1.1.4-2.4.5-3.9.5zm-.8-16.2c-1.1 0-2 .4-2.6 1.1-.6.7-1 1.7-1.1 3h7.4c0-1.3-.4-2.3-1-3-.7-.7-1.6-1.1-2.7-1.1zm26.2 10.2c0 2-.7 3.5-2.1 4.5-1.4 1-3.4 1.5-6.2 1.5-1.4 0-2.6-.1-3.6-.3-1-.2-1.9-.5-2.8-.8v-4.3c1 .5 2.1.8 3.3 1.2 1.2.3 2.3.5 3.2.5 1.9 0 2.9-.6 2.9-1.7 0-.4-.1-.7-.4-1-.3-.3-.7-.6-1.3-.9-.6-.3-1.4-.7-2.5-1.1-1.5-.6-2.6-1.2-3.3-1.7-.7-.5-1.2-1.1-1.5-1.8-.3-.7-.5-1.5-.5-2.5 0-1.7.7-3 2-4 1.3-.9 3.2-1.4 5.6-1.4 2.3 0 4.6.5 6.8 1.5l-1.6 3.8c-1-.4-1.9-.8-2.7-1-.8-.3-1.7-.4-2.6-.4-1.5 0-2.3.4-2.3 1.3 0 .5.2.9.7 1.2.5.3 1.6.9 3.3 1.5 1.5.6 2.6 1.2 3.3 1.7.7.5 1.2 1.1 1.5 1.8.6.6.8 1.4.8 2.4zm-185.9 13.3v16.3c0 1.9-.4 3.5-1.2 4.9-.8 1.4-2 2.5-3.6 3.2-1.6.7-3.4 1.1-5.6 1.1-3.2 0-5.8-.8-7.5-2.5-1.8-1.7-2.7-3.9-2.7-6.8v-16.2h5.3v15.4c0 1.9.4 3.4 1.2 4.3.8.9 2.1 1.4 3.9 1.4 1.7 0 3-.5 3.8-1.4.8-.9 1.2-2.3 1.2-4.3v-15.4h5.2zm22.9 25.2h-5.3v-11.2c0-1.4-.2-2.4-.7-3.1-.5-.7-1.3-1-2.4-1-1.5 0-2.5.5-3.2 1.5-.7 1-1 2.6-1 4.9v9.1h-5.3v-19.3h4l.7 2.5h.3c.6-.9 1.4-1.6 2.4-2.1s2.2-.7 3.5-.7c2.2 0 3.9.6 5.1 1.8 1.2 1.2 1.7 3 1.7 5.2v12.4zm4.4-24.2c0-1.7 1-2.6 2.9-2.6s2.9.9 2.9 2.6c0 .8-.2 1.4-.7 1.9-.5.5-1.2.7-2.1.7-2-.1-3-.9-3-2.6zm5.5 24.2h-5.2v-19.3h5.3v19.3zm22.4-9.7c0 3.1-.8 5.6-2.5 7.4-1.7 1.8-4 2.7-6.9 2.7-1.8 0-3.5-.4-4.9-1.2-1.4-.8-2.5-2-3.3-3.5-.8-1.5-1.1-3.3-1.1-5.3 0-3.1.8-5.6 2.5-7.3 1.6-1.7 3.9-2.6 6.9-2.6 1.8 0 3.5.4 4.9 1.2 1.4.8 2.5 2 3.3 3.5.7 1.3 1.1 3.1 1.1 5.1zm-13.3 0c0 1.9.3 3.3.9 4.3.6 1 1.6 1.5 3.1 1.5 1.4 0 2.4-.5 3-1.5.6-1 .9-2.4.9-4.3s-.3-3.3-.9-4.3c-.6-1-1.6-1.4-3-1.4s-2.4.5-3 1.4c-.7 1-1 2.4-1 4.3zm34.9 9.7h-5.3v-11.2c0-1.4-.2-2.4-.7-3.1-.5-.7-1.3-1-2.4-1-1.5 0-2.5.5-3.2 1.5-.7 1-1 2.6-1 4.9v9.1h-5.3v-19.3h4l.7 2.5h.3c.6-.9 1.4-1.6 2.4-2.1s2.2-.7 3.5-.7c2.2 0 3.9.6 5.1 1.8 1.2 1.2 1.7 3 1.7 5.2v12.4zm-247.5 13.1c-13.3 11-30.4 17.6-49 17.6-42.5 0-77.2-34.6-77.2-77.2 0-42.5 34.6-77.2 77.2-77.2 18.6 0 35.7 6.6 49 17.6 5.1-1.4 10.5-2.1 16-2.1 5.8 0 11.4.8 16.7 2.3-7.7-10.6-17.4-19.6-28.5-26.5l7-15L139.7 0l-7 14.9c-9.9-3.3-20.6-5.1-31.6-5.1C45.4 9.8 0 55.1 0 110.9c0 36.2 19.1 68 47.8 85.9l-7 15 21.7 10.1 7-14.9c9.9 3.3 20.6 5.1 31.6 5.1 33.6 0 63.4-16.5 81.8-41.7-5.3 1.5-10.9 2.3-16.7 2.3-5.5 0-10.9-.8-16-2.1z"
       id="path6"
       style="fill:#000000" />
    <path
       d="M109.4 84.6c3.1-6.7 7.3-12.8 12.4-18H58.5v88.1h63.2c-5.1-5.2-9.3-11.3-12.4-18H76.5v-17.1h27.8c-.4-2.9-.6-5.9-.6-9 0-3.1.2-6.1.7-9H76.5V84.5c0 .1 21.6.1 32.9.1z"
       id="path8"
       style="fill:#000000" />
    <path
       d="M159.3 119.3h21.6v16.4c-4.3 2.5-9.2 3.8-14.3 3.8-15.9 0-28.8-12.9-28.8-28.8s12.9-28.8 28.8-28.8c6.5 0 12.7 2.1 17.8 6.1l11.1-14.2c-8.3-6.5-18.3-10-28.9-10-25.8 0-46.8 21-46.8 46.8 0 25.8 21 46.8 46.8 46.8 10.6 0 20.6-3.4 28.9-10l3.4-2.7v-43.3h-39.6v17.9zm102.9-52.7v57.6c0 8.4-6.9 15.3-15.3 15.3s-15.3-6.9-15.3-15.3V66.6h-18v57.6c0 18.4 14.9 33.3 33.3 33.3s33.3-14.9 33.3-33.3V66.6h-18z"
       id="path10"
       style="fill:#000000" />
  </g>
</svg>
