<?xml version="1.0" encoding="UTF-8" standalone="no"?>
<!-- Created with Inkscape (http://www.inkscape.org/) -->

<svg
   xmlns:dc="http://purl.org/dc/elements/1.1/"
   xmlns:cc="http://creativecommons.org/ns#"
   xmlns:rdf="http://www.w3.org/1999/02/22-rdf-syntax-ns#"
   xmlns:svg="http://www.w3.org/2000/svg"
   xmlns="http://www.w3.org/2000/svg"
   version="1.1"
   width="580"
   height="580"
   viewBox="0 0 580 580"
   id="Capa_1"
   xml:space="preserve"><metadata
     id="metadata9"><rdf:RDF><cc:Work
         rdf:about=""><dc:format>image/svg+xml</dc:format><dc:type
           rdf:resource="http://purl.org/dc/dcmitype/StillImage" /><dc:title></dc:title></cc:Work></rdf:RDF></metadata><defs
     id="defs7" /><path
     d="m 289.69244,20 c 37.44014,0 72.51455,7.08904 105.22325,21.26712 32.71071,14.17809 61.30308,33.49315 85.78318,57.94521 24.48009,24.45205 43.8173,53.0137 58.01164,85.68493 C 552.90283,217.56849 560,252.60274 560,290 c 0,37.39726 -7.09717,72.43151 -21.28949,105.10274 -14.19434,32.67325 -33.53155,61.23288 -58.01164,85.68493 -24.4801,24.45206 -53.07449,43.76712 -85.78318,57.94521 C 362.20699,552.91096 327.13258,560 289.69244,560 252.2523,560 217.17788,552.91096 184.46919,538.73489 151.76049,524.55681 123.1661,505.24174 98.686007,480.78969 74.205917,456.33763 54.971559,427.77599 40.982936,395.10475 26.994312,362.43151 20,327.39726 20,290 20,252.60274 26.994312,217.56849 40.982936,184.89726 54.971559,152.22603 74.205917,123.66438 98.686007,99.21233 123.1661,74.76027 151.76049,55.44521 184.46919,41.26712 217.17788,27.08904 252.2523,20 289.69244,20 z m 0,29.58904 c -33.32584,0 -64.59453,6.26712 -93.80607,18.80137 -29.21154,12.53425 -54.7202,29.69178 -76.526,51.4726 C 97.554577,141.64384 80.377369,167.12329 67.82875,196.30137 55.280132,225.47945 49.005823,256.71233 49.005823,290 c 0,33.28767 6.274309,64.52055 18.822927,93.69863 12.548619,29.17808 29.725827,54.65753 51.53162,76.43836 21.8058,21.78082 47.31446,38.93835 76.526,51.4726 29.21154,12.53425 60.48023,18.80137 93.80607,18.80137 33.32584,0 64.59452,-6.26712 93.80606,-18.80137 29.21154,-12.53223 54.72021,-29.69178 76.526,-51.4726 21.8058,-21.78083 38.98301,-47.26028 51.53162,-76.43836 12.54862,-29.1801 18.82293,-60.41297 18.82293,-93.69863 0,-33.28566 -6.27431,-64.52055 -18.82293,-93.69863 C 499.00952,167.12329 481.8303,141.64384 460.0245,119.86301 438.21871,98.08219 412.71004,80.92466 383.4985,68.39041 354.28696,55.85616 323.01828,49.58904 289.69244,49.58904 z m 69.12026,284.79452 c 25.92009,-9.04311 38.88014,-26.09589 38.88014,-51.16438 0,-13.15069 -2.16001,-23.5274 -6.48002,-31.13014 -4.32002,-7.60274 -11.21147,-13.86986 -20.67437,-18.80137 -4.52573,-2.46575 -9.87432,-3.90411 -16.04577,-4.31507 -6.17145,-0.41096 -12.75232,-0.5137 -19.74865,-0.30822 -6.99431,0.20548 -14.39803,0.61644 -22.21722,1.23288 -7.81717,0.61644 -15.63435,0.92466 -23.4495,0.92466 -7.81717,0 -15.63435,-0.30822 -23.45152,-0.92466 -7.81717,-0.61644 -15.22291,-1.0274 -22.21722,-1.23288 -6.99432,-0.20548 -13.5772,-0.10274 -19.74865,0.30822 -6.17145,0.41096 -11.52004,1.84932 -16.04577,4.31507 -9.4629,4.93151 -16.25149,11.19863 -20.36579,18.80137 -4.1143,7.60274 -6.17146,17.97945 -6.17146,31.13014 0,25.06849 12.96005,42.12329 38.88015,51.16438 4.52573,1.23288 9.46289,2.46374 14.81148,3.69863 4.52574,0.81991 10.1829,1.64384 16.9715,2.46374 6.78859,0.82192 14.70862,1.23489 23.76009,1.23489 h 27.15438 c 8.64003,0 16.45721,-0.41096 23.45354,-1.23489 6.99431,-0.8199 12.96004,-1.64383 17.89721,-2.46374 5.75598,-1.23287 10.69314,-2.46575 14.80745,-3.69863 z M 432.87012,245 c 0,13.15068 -1.44203,25.58219 -4.32002,37.29452 -2.88001,11.71031 -8.2286,22.29452 -16.04577,31.74658 -7.81718,9.45205 -18.61722,17.26027 -32.40013,23.42465 -13.7829,6.16439 -31.37154,10.0685 -52.76591,11.71233 3.29144,1.64384 7.5086,3.69863 12.65148,6.16439 5.14287,2.46575 9.56575,7.19178 13.26862,14.17808 2.05715,4.51853 3.3943,11.09589 4.01144,19.72603 0.61715,8.62812 0.92572,17.46575 0.92572,26.50483 0,9.04311 -0.10286,17.36301 -0.30857,24.96575 -0.20572,7.60274 0.10286,12.22704 0.92572,13.87087 1.64572,3.28768 4.01245,6.16338 7.09717,8.62813 3.08572,2.46575 5.65716,4.31506 7.71431,5.54895 2.05614,1.23388 2.67228,2.77498 1.85144,4.62429 -0.82286,1.84932 -3.70288,2.97946 -8.64004,3.3884 -2.46858,0 -5.5543,-0.40894 -9.25717,-1.23288 -3.70288,-0.82091 -7.20205,-2.26027 -10.49147,-4.31507 -3.28943,-2.05479 -6.0686,-4.62328 -8.33146,-7.70346 -2.26287,-3.08421 -3.3943,-7.08904 -3.3943,-12.02256 v -50.54795 c 0,-5.75342 -1.33715,-9.86301 -4.01245,-12.32876 -2.67228,-2.46576 -5.44943,-4.10959 -8.33146,-4.93151 v 66.57635 c 0,11.91781 1.44,19.72603 4.32001,23.42466 1.23429,1.64383 2.36573,3.39041 3.3943,5.23972 1.02858,1.84932 1.64572,3.39041 1.85144,4.62329 0.20571,1.23288 -0.51429,1.95205 -2.16203,2.15753 -1.64572,0.20548 -4.72943,-0.30822 -9.25717,-1.53908 -8.64004,-2.05479 -14.81149,-6.78082 -18.51436,-14.17808 -3.70287,-7.39726 -5.55431,-15.20548 -5.55431,-23.42466 v -65.34246 h -13.57416 v 65.34246 c 0,8.21918 -1.74858,16.0274 -5.24574,23.42466 -3.49715,7.39726 -9.77146,12.12329 -18.82293,14.17808 -4.52573,1.23288 -7.5086,1.74456 -8.9486,1.53908 -1.44001,-0.20346 -2.16001,-0.92465 -2.16001,-2.15753 0,-1.23288 0.61715,-2.77397 1.85144,-4.62329 1.23429,-1.84931 2.46858,-3.59589 3.70287,-5.23972 0.82286,-1.64384 1.74858,-4.52055 2.77715,-8.63014 1.02858,-4.10858 1.54286,-9.0411 1.54286,-14.79452 v -66.57534 c -2.88001,0.8199 -5.5543,2.46373 -8.02288,4.9315 -2.46858,2.46576 -3.70287,6.57534 -3.70287,12.32877 v 50.54794 c 0,4.93151 -1.13144,8.93836 -3.3943,12.02257 -2.26287,3.08219 -5.04002,5.64867 -8.33146,7.70346 -3.29144,2.0548 -6.7886,3.49517 -10.49147,4.31507 -3.70287,0.82192 -6.7886,1.23288 -9.25718,1.23288 -4.93716,-0.40895 -7.81717,-1.53908 -8.64003,-3.3884 -0.82286,-1.84931 -0.20572,-3.39041 1.85144,-4.62329 2.05715,-1.23489 4.62858,-3.0842 7.71431,-5.54996 3.08573,-2.46374 5.45145,-5.34246 7.09717,-8.62812 0.82286,-2.05479 1.13143,-7.5 0.92572,-16.33763 -0.20572,-8.83461 -0.30858,-18.59589 -0.30858,-29.27881 -3.29144,1.23288 -7.61145,2.0548 -12.96004,2.46576 -5.3486,0.40894 -11.31433,0 -17.89721,-1.2349 -11.10862,-2.05479 -19.54293,-5.64867 -25.30296,-10.78767 -5.76002,-5.13698 -11.31432,-13.25342 -16.66291,-24.34931 -2.88002,-5.34247 -6.0686,-9.76028 -9.56575,-13.25343 -3.49716,-3.49315 -6.58289,-6.26712 -9.25718,-8.32191 -2.6743,-2.0548 -4.73145,-3.80137 -6.17145,-5.23973 -1.44001,-1.43836 -1.54287,-2.77397 -0.30858,-4.00786 2.46858,-2.8757 5.86288,-4.10858 10.1829,-3.69963 4.32001,0.41096 6.89145,1.0284 7.71431,1.84931 4.93716,2.0548 9.87433,6.36986 14.81149,12.94722 4.93716,6.57736 10.08003,12.12329 15.42863,16.64384 2.46858,2.05278 5.5543,4.10757 9.25717,6.16237 3.70287,2.05479 7.81718,3.49516 12.34291,4.31506 4.52573,0.82192 9.46289,0.82192 14.81148,0 5.34859,-0.8199 10.69718,-3.08219 16.04578,-6.7788 1.23429,-5.34448 3.18858,-9.5548 5.86287,-12.638 2.6743,-3.0832 5.55431,-5.54895 8.64004,-7.39826 3.08572,-1.84932 5.96573,-3.28768 8.64003,-4.31507 2.67429,-1.0274 4.8343,-1.95206 6.48002,-2.77398 -22.62865,-1.64383 -41.14301,-5.44319 -55.54306,-11.40209 -14.40006,-5.9589 -25.81724,-13.56366 -34.25156,-22.81023 -8.43432,-9.24658 -14.19434,-19.82877 -17.28006,-31.74658 -3.08573,-11.91781 -4.62859,-24.45205 -4.62859,-37.60274 0,-13.56164 2.05715,-25.68493 6.17145,-36.36986 4.1143,-10.68493 9.87432,-20.13699 17.28006,-28.35617 -3.29144,-9.86301 -4.42287,-20.23972 -3.39429,-31.13013 1.02857,-10.89041 3.18858,-20.65069 6.48002,-29.28083 15.63434,0.82192 28.69725,4.10959 39.18872,9.86302 10.49147,5.75342 17.79435,10.47945 21.90865,14.17808 17.6915,-4.93151 36.00014,-7.39726 54.92592,-7.39726 h 4.32002 c 17.69149,0 34.76786,2.05479 51.22305,6.16438 4.52573,-3.69863 11.93147,-8.21917 22.21722,-13.56164 10.28576,-5.34247 23.04211,-8.42466 38.263,-9.24658 3.29144,8.21918 5.45145,17.46576 6.48003,27.73973 1.02958,10.27397 0.30857,20.13699 -2.16001,29.58904 8.2286,8.21918 14.60375,17.97945 19.1315,29.28082 4.52573,11.3054 6.7886,24.14787 6.7886,38.53143 z M 288.45815,230.82192 h 0.61714 0.61715 -1.23429 z m 79.61172,48.08219 c 0,5.75342 -1.54084,10.68493 -4.62859,14.79452 -3.08572,4.10959 -6.89145,6.16438 -11.41617,6.16438 -4.52473,0 -8.2276,-2.05479 -11.10962,-6.16438 -2.878,-4.10959 -4.32002,-9.0411 -4.32002,-14.79452 0,-5.75343 1.44202,-10.68493 4.32002,-14.79452 2.88001,-4.10959 6.58288,-6.16438 11.10962,-6.16438 4.52472,0 8.33247,2.05479 11.41617,6.16438 3.08573,4.10959 4.62859,9.04109 4.62859,14.79452 z m -120.96045,0 c 0,5.75342 -1.54286,10.68493 -4.62859,14.79452 -3.08572,4.10959 -6.89145,6.16438 -11.41718,6.16438 -4.52573,0 -8.22861,-2.05479 -11.10862,-6.16438 -2.88001,-4.10959 -4.32001,-9.0411 -4.32001,-14.79452 0,-5.75343 1.44,-10.68493 4.32001,-14.79452 2.88001,-4.10959 6.58289,-6.16438 11.10862,-6.16438 4.52573,0 8.33146,2.05479 11.41718,6.16438 3.08573,4.10959 4.62859,9.04109 4.62859,14.79452 z"
     id="path3" /></svg>